<?xml version="1.0" encoding="UTF-8" standalone="no"?>
<svg
   xmlns:dc="http://purl.org/dc/elements/1.1/"
   xmlns:cc="http://creativecommons.org/ns#"
   xmlns:rdf="http://www.w3.org/1999/02/22-rdf-syntax-ns#"
   xmlns:svg="http://www.w3.org/2000/svg"
   xmlns="http://www.w3.org/2000/svg"
   xmlns:sodipodi="http://sodipodi.sourceforge.net/DTD/sodipodi-0.dtd"
   xmlns:inkscape="http://www.inkscape.org/namespaces/inkscape"
   version="1.1"
   width="21.0007cm"
   height="29.700199cm"
   viewBox="0 0 82679.979 116930.03"
   id="svg328"
   sodipodi:docname="zerocross-F.Cu.svg"
   inkscape:version="0.92.2 (5c3e80d, 2017-08-06)">
  <metadata
     id="metadata334">
    <rdf:RDF>
      <cc:Work
         rdf:about="">
        <dc:format>image/svg+xml</dc:format>
        <dc:type
           rdf:resource="http://purl.org/dc/dcmitype/StillImage" />
        <dc:title>SVG Picture created as zerocross-F.Cu.svg date 2018/03/05 22:32:53 </dc:title>
      </cc:Work>
    </rdf:RDF>
  </metadata>
  <defs
     id="defs332" />
  <sodipodi:namedview
     pagecolor="#ffffff"
     bordercolor="#666666"
     borderopacity="1"
     objecttolerance="10"
     gridtolerance="10"
     guidetolerance="10"
     inkscape:pageopacity="0"
     inkscape:pageshadow="2"
     inkscape:window-width="1280"
     inkscape:window-height="941"
     id="namedview330"
     showgrid="true"
     inkscape:document-units="mm"
     inkscape:zoom="1.1893254"
     inkscape:cx="415.76585"
     inkscape:cy="830.69093"
     inkscape:window-x="0"
     inkscape:window-y="0"
     inkscape:window-maximized="1"
     inkscape:current-layer="svg328">
    <inkscape:grid
       type="xygrid"
       id="grid336"
       units="mm"
       spacingx="196.85056"
       spacingy="196.85056" />
  </sodipodi:namedview>
  <title
     id="title2">SVG Picture created as zerocross-F.Cu.svg date 2018/03/05 22:32:53 </title>
  <desc
     id="desc4">Picture generated by PCBNEW </desc>
  <g
     style="fill:#000000;fill-opacity:1;stroke:#000000;stroke-linecap:round;stroke-linejoin:round;stroke-opacity:1"
     id="g6"
     transform="translate(0,34250.025)" />
  <g
     style="fill:#000000;fill-opacity:0;stroke:#000000;stroke-width:-0.0003937;stroke-linecap:round;stroke-linejoin:round;stroke-opacity:1"
     id="g8"
     transform="translate(0,34250.025)" />
  <g
     style="fill:#000000;fill-opacity:0;stroke:#000000;stroke-width:0;stroke-linecap:round;stroke-linejoin:round;stroke-opacity:1"
     id="g32"
     transform="translate(0,34250.025)" />
  <g
     style="fill:#000000;fill-opacity:1;stroke:#000000;stroke-width:787.40197754;stroke-linecap:round;stroke-linejoin:round;stroke-opacity:1"
     id="g42"
     transform="translate(0,34250.025)" />
  <g
     style="fill:#000000;fill-opacity:0;stroke:#000000;stroke-width:0;stroke-linecap:round;stroke-linejoin:round;stroke-opacity:1"
     id="g48"
     transform="translate(0,34250.025)" />
  <g
     style="fill:#000000;fill-opacity:1;stroke:#000000;stroke-width:787.40197754;stroke-linecap:round;stroke-linejoin:round;stroke-opacity:1"
     id="g54"
     transform="translate(0,34250.025)" />
  <g
     style="fill:#000000;fill-opacity:0;stroke:#000000;stroke-width:0;stroke-linecap:round;stroke-linejoin:round;stroke-opacity:1"
     id="g62"
     transform="translate(0,34250.025)" />
  <g
     style="fill:#000000;fill-opacity:1;stroke:#000000;stroke-width:787.40197754;stroke-linecap:round;stroke-linejoin:round;stroke-opacity:1"
     id="g72"
     transform="translate(0,34250.025)" />
  <g
     style="fill:#000000;fill-opacity:0;stroke:#000000;stroke-width:0;stroke-linecap:round;stroke-linejoin:round;stroke-opacity:1"
     id="g82"
     transform="translate(0,34250.025)" />
  <g
     style="fill:#000000;fill-opacity:1;stroke:#000000;stroke-width:157.47999573;stroke-linecap:round;stroke-linejoin:round;stroke-opacity:1"
     id="g138"
     transform="translate(0,34250.025)" />
  <g
     style="fill:#ffffff;fill-opacity:0;stroke:#ffffff;stroke-width:157.47999573;stroke-linecap:round;stroke-linejoin:round;stroke-opacity:1"
     id="g270"
     transform="translate(0,34250.025)" />
  <g
     style="fill:#ffffff;fill-opacity:1;stroke:#ffffff;stroke-width:39.37009811;stroke-linecap:round;stroke-linejoin:round;stroke-opacity:1"
     id="g276"
     transform="translate(0,34250.025)" />
  <g
     style="fill:#ffffff;fill-opacity:1;stroke:#ffffff;stroke-width:39.37009811;stroke-linecap:round;stroke-linejoin:round;stroke-opacity:1"
     id="g282"
     transform="translate(0,34250.025)" />
  <g
     style="fill:#ffffff;fill-opacity:1;stroke:#ffffff;stroke-width:39.37009811;stroke-linecap:round;stroke-linejoin:round;stroke-opacity:1"
     id="g288"
     transform="translate(0,34250.025)" />
  <g
     style="fill:#ffffff;fill-opacity:1;stroke:#ffffff;stroke-width:39.37009811;stroke-linecap:round;stroke-linejoin:round;stroke-opacity:1"
     id="g294"
     transform="translate(0,34250.025)" />
  <g
     style="fill:#ffffff;fill-opacity:1;stroke:#ffffff;stroke-width:39.37009811;stroke-linecap:round;stroke-linejoin:round;stroke-opacity:1"
     id="g300"
     transform="translate(0,34250.025)" />
  <g
     style="fill:#ffffff;fill-opacity:1;stroke:#ffffff;stroke-width:39.37009811;stroke-linecap:round;stroke-linejoin:round;stroke-opacity:1"
     id="g306"
     transform="translate(0,34250.025)" />
  <g
     style="fill:#ffffff;fill-opacity:1;stroke:#ffffff;stroke-width:39.37009811;stroke-linecap:round;stroke-linejoin:round;stroke-opacity:1"
     id="g312"
     transform="translate(0,34250.025)" />
  <g
     style="fill:#ffffff;fill-opacity:1;stroke:#ffffff;stroke-width:39.37009811;stroke-linecap:round;stroke-linejoin:round;stroke-opacity:1"
     id="g318"
     transform="translate(0,34250.025)" />
  <g
     id="g478"
     transform="matrix(1.0400108,0,0,1.0400108,-8701.8348,-57170.993)">
    <g
       transform="translate(0,34250.025)"
       id="g18"
       style="fill:#000000;fill-opacity:0;stroke:#000000;stroke-width:118.11000061;stroke-linecap:round;stroke-linejoin:round;stroke-opacity:1">
      <path
         inkscape:connector-curvature="0"
         id="path10"
         d="m 50380,39440 h -337" />
      <path
         inkscape:connector-curvature="0"
         id="path12"
         d="m 50211,40030 v -590" />
      <path
         inkscape:connector-curvature="0"
         id="path14"
         d="m 49733,39440 h -112 l -57,28 -56,56 -28,113 v 197 l 28,112 56,56 57,28 h 112 l 56,-28 57,-56 28,-112 v -197 l -28,-113 -57,-56 -56,-28" />
      <path
         inkscape:connector-curvature="0"
         id="path16"
         d="m 49227,40030 v -590 h -225 l -56,28 -28,28 -28,56 v 85 l 28,56 28,28 56,28 h 225" />
    </g>
    <g
       transform="translate(0,34250.025)"
       id="g30"
       style="fill:#000000;fill-opacity:0;stroke:#000000;stroke-width:78.74019623;stroke-linecap:round;stroke-linejoin:round;stroke-opacity:1">
      <path
         inkscape:connector-curvature="0"
         id="path20"
         d="M 44095,40944 H 56300" />
      <path
         inkscape:connector-curvature="0"
         id="path22"
         d="m 44095,40551 v 393" />
      <path
         inkscape:connector-curvature="0"
         id="path24"
         d="m 44095,32677 v 7874" />
      <path
         inkscape:connector-curvature="0"
         id="path26"
         d="M 56300,32677 H 44095" />
      <path
         inkscape:connector-curvature="0"
         id="path28"
         d="M 56300,40944 V 32677" />
    </g>
    <g
       transform="translate(0,34250.025)"
       id="g40"
       style="fill:#000000;fill-opacity:1;stroke:#000000;stroke-width:0;stroke-linecap:round;stroke-linejoin:round;stroke-opacity:1">
      <polyline
         id="polyline34"
         points="49237,37954 49237,38545 49618,38545 49618,37954 49237,37954 "
         style="fill-rule:evenodd" />
      <polyline
         id="polyline36"
         points="49989,37954 49989,38545 50370,38545 50370,37954 49989,37954 "
         style="fill-rule:evenodd" />
      <polyline
         id="polyline38"
         points="55573,38606 54786,38606 54786,39393 55573,39393 55573,38606 "
         style="fill-rule:evenodd" />
    </g>
    <g
       transform="translate(0,34250.025)"
       id="g46"
       style="fill:#000000;fill-opacity:0;stroke:#000000;stroke-width:787.40197754;stroke-linecap:round;stroke-linejoin:round;stroke-opacity:1">
      <path
         inkscape:connector-curvature="0"
         id="path44"
         d="m 54180,39000 v 0" />
    </g>
    <g
       transform="translate(0,34250.025)"
       id="g52"
       style="fill:#000000;fill-opacity:1;stroke:#000000;stroke-width:0;stroke-linecap:round;stroke-linejoin:round;stroke-opacity:1">
      <polyline
         id="polyline50"
         points="44786,36606 44786,37393 45573,37393 45573,36606 44786,36606 "
         style="fill-rule:evenodd" />
    </g>
    <g
       transform="translate(0,34250.025)"
       id="g60"
       style="fill:#000000;fill-opacity:0;stroke:#000000;stroke-width:787.40197754;stroke-linecap:round;stroke-linejoin:round;stroke-opacity:1">
      <path
         inkscape:connector-curvature="0"
         id="path56"
         d="m 45180,38000 v 0" />
      <path
         inkscape:connector-curvature="0"
         id="path58"
         d="m 45180,39000 v 0" />
    </g>
    <g
       transform="translate(0,34250.025)"
       id="g70"
       style="fill:#000000;fill-opacity:1;stroke:#000000;stroke-width:0;stroke-linecap:round;stroke-linejoin:round;stroke-opacity:1">
      <polyline
         id="polyline64"
         points="51046,36665 51046,37334 51557,37334 51557,36665 51046,36665 "
         style="fill-rule:evenodd" />
      <polyline
         id="polyline66"
         points="52424,36665 52424,37334 52935,37334 52935,36665 52424,36665 "
         style="fill-rule:evenodd" />
      <polyline
         id="polyline68"
         points="48323,35606 47536,35606 47536,36393 48323,36393 48323,35606 "
         style="fill-rule:evenodd" />
    </g>
    <g
       transform="translate(0,34250.025)"
       id="g80"
       style="fill:#000000;fill-opacity:0;stroke:#000000;stroke-width:787.40197754;stroke-linecap:round;stroke-linejoin:round;stroke-opacity:1">
      <path
         inkscape:connector-curvature="0"
         id="path74"
         d="m 46930,39000 v 0" />
      <path
         inkscape:connector-curvature="0"
         id="path76"
         d="m 46930,36000 v 0" />
      <path
         inkscape:connector-curvature="0"
         id="path78"
         d="m 47930,39000 v 0" />
    </g>
    <g
       transform="translate(0,34250.025)"
       id="g136"
       style="fill:#000000;fill-opacity:1;stroke:#000000;stroke-width:0;stroke-linecap:round;stroke-linejoin:round;stroke-opacity:1">
      <polyline
         id="polyline84"
         points="49587,34322 49272,34322 49272,34677 49587,34677 49587,34322 "
         style="fill-rule:evenodd" />
      <polyline
         id="polyline86"
         points="49961,33535 49646,33535 49646,33889 49961,33889 49961,33535 "
         style="fill-rule:evenodd" />
      <polyline
         id="polyline88"
         points="49213,33535 48898,33535 48898,33889 49213,33889 49213,33535 "
         style="fill-rule:evenodd" />
      <polyline
         id="polyline90"
         points="47213,33535 46898,33535 46898,33889 47213,33889 47213,33535 "
         style="fill-rule:evenodd" />
      <polyline
         id="polyline92"
         points="47961,33535 47646,33535 47646,33889 47961,33889 47961,33535 "
         style="fill-rule:evenodd" />
      <polyline
         id="polyline94"
         points="47587,34322 47272,34322 47272,34677 47587,34677 47587,34322 "
         style="fill-rule:evenodd" />
      <polyline
         id="polyline96"
         points="55022,36868 55337,36868 55337,36474 55022,36474 55022,36868 "
         style="fill-rule:evenodd" />
      <polyline
         id="polyline98"
         points="54022,36868 54337,36868 54337,36474 54022,36474 54022,36868 "
         style="fill-rule:evenodd" />
      <polyline
         id="polyline100"
         points="54022,34446 54337,34446 54337,34053 54022,34053 54022,34446 "
         style="fill-rule:evenodd" />
      <polyline
         id="polyline102"
         points="55022,34446 55337,34446 55337,34053 55022,34053 55022,34446 "
         style="fill-rule:evenodd" />
      <polyline
         id="polyline104"
         points="44884,34938 45475,34938 45475,34557 44884,34557 44884,34938 "
         style="fill-rule:evenodd" />
      <polyline
         id="polyline106"
         points="44884,35690 45475,35690 45475,35309 44884,35309 44884,35690 "
         style="fill-rule:evenodd" />
      <polyline
         id="polyline108"
         points="52725,33559 52134,33559 52134,33940 52725,33940 52725,33559 "
         style="fill-rule:evenodd" />
      <polyline
         id="polyline110"
         points="52725,34311 52134,34311 52134,34692 52725,34692 52725,34311 "
         style="fill-rule:evenodd" />
      <polyline
         id="polyline112"
         points="50884,33940 51475,33940 51475,33559 50884,33559 50884,33940 "
         style="fill-rule:evenodd" />
      <polyline
         id="polyline114"
         points="50884,34692 51475,34692 51475,34311 50884,34311 50884,34692 "
         style="fill-rule:evenodd" />
      <polyline
         id="polyline116"
         points="50989,35454 50989,36045 51370,36045 51370,35454 50989,35454 "
         style="fill-rule:evenodd" />
      <polyline
         id="polyline118"
         points="51741,35454 51741,36045 52122,36045 52122,35454 51741,35454 "
         style="fill-rule:evenodd" />
      <polyline
         id="polyline120"
         points="49620,36045 49620,35454 49239,35454 49239,36045 49620,36045 "
         style="fill-rule:evenodd" />
      <polyline
         id="polyline122"
         points="50372,36045 50372,35454 49991,35454 49991,36045 50372,36045 "
         style="fill-rule:evenodd" />
      <polyline
         id="polyline124"
         points="52872,39795 52872,39204 52491,39204 52491,39795 52872,39795 "
         style="fill-rule:evenodd" />
      <polyline
         id="polyline126"
         points="52120,39795 52120,39204 51739,39204 51739,39795 52120,39795 "
         style="fill-rule:evenodd" />
      <polyline
         id="polyline128"
         points="49989,36704 49989,37295 50370,37295 50370,36704 49989,36704 "
         style="fill-rule:evenodd" />
      <polyline
         id="polyline130"
         points="49237,36704 49237,37295 49618,37295 49618,36704 49237,36704 "
         style="fill-rule:evenodd" />
      <polyline
         id="polyline132"
         points="52870,38545 52870,37954 52489,37954 52489,38545 52870,38545 "
         style="fill-rule:evenodd" />
      <polyline
         id="polyline134"
         points="52118,38545 52118,37954 51737,37954 51737,38545 52118,38545 "
         style="fill-rule:evenodd" />
    </g>
    <g
       transform="translate(0,34250.025)"
       id="g268"
       style="fill:#000000;fill-opacity:0;stroke:#000000;stroke-width:157.47999573;stroke-linecap:round;stroke-linejoin:round;stroke-opacity:1">
      <path
         inkscape:connector-curvature="0"
         id="path140"
         d="m 53155,39500 275,-275" />
      <path
         inkscape:connector-curvature="0"
         id="path142"
         d="m 52681,39500 h 474" />
      <path
         inkscape:connector-curvature="0"
         id="path144"
         d="M 53430,39225 V 35750" />
      <path
         inkscape:connector-curvature="0"
         id="path146"
         d="m 54180,35000 -750,750" />
      <path
         inkscape:connector-curvature="0"
         id="path148"
         d="M 53430,35750 H 51931" />
      <path
         inkscape:connector-curvature="0"
         id="path150"
         d="m 54180,34250 v 750" />
      <path
         inkscape:connector-curvature="0"
         id="path152"
         d="m 50180,37000 h 1122" />
      <path
         inkscape:connector-curvature="0"
         id="path154"
         d="m 50180,37000 v 1250" />
      <path
         inkscape:connector-curvature="0"
         id="path156"
         d="m 50181,35750 v 1248" />
      <path
         inkscape:connector-curvature="0"
         id="path158"
         d="m 50181,36998 -1,2" />
      <path
         inkscape:connector-curvature="0"
         id="path160"
         d="m 48330,37000 -400,-400" />
      <path
         inkscape:connector-curvature="0"
         id="path162"
         d="M 49428,37000 H 48330" />
      <path
         inkscape:connector-curvature="0"
         id="path164"
         d="m 47930,36600 v -600" />
      <path
         inkscape:connector-curvature="0"
         id="path166"
         d="m 48130,34500 -400,-400" />
      <path
         inkscape:connector-curvature="0"
         id="path168"
         d="M 49430,34500 H 48130" />
      <path
         inkscape:connector-curvature="0"
         id="path170"
         d="m 47055,34100 v -1" />
      <path
         inkscape:connector-curvature="0"
         id="path172"
         d="m 47730,34100 h -675" />
      <path
         inkscape:connector-curvature="0"
         id="path174"
         d="m 47055,34099 v -387" />
      <path
         inkscape:connector-curvature="0"
         id="path176"
         d="m 49430,34500 v 1250" />
      <path
         inkscape:connector-curvature="0"
         id="path178"
         d="m 51180,34501 v 1249" />
      <path
         inkscape:connector-curvature="0"
         id="path180"
         d="M 51180,33000 H 49055" />
      <path
         inkscape:connector-curvature="0"
         id="path182"
         d="m 49055,33000 v 0" />
      <path
         inkscape:connector-curvature="0"
         id="path184"
         d="m 51180,33750 v -750" />
      <path
         inkscape:connector-curvature="0"
         id="path186"
         d="m 49055,33000 v 712" />
      <path
         inkscape:connector-curvature="0"
         id="path188"
         d="M 52430,33750 H 51180" />
      <path
         inkscape:connector-curvature="0"
         id="path190"
         d="m 48380,33725 -13,-13" />
      <path
         inkscape:connector-curvature="0"
         id="path192"
         d="m 48367,33712 h -563" />
      <path
         inkscape:connector-curvature="0"
         id="path194"
         d="m 48380,34125 v -400" />
      <path
         inkscape:connector-curvature="0"
         id="path196"
         d="M 49828,34125 H 48380" />
      <path
         inkscape:connector-curvature="0"
         id="path198"
         d="m 49804,38249 -1,1" />
      <path
         inkscape:connector-curvature="0"
         id="path200"
         d="m 49803,38250 h -375" />
      <path
         inkscape:connector-curvature="0"
         id="path202"
         d="m 49804,34149 v 4100" />
      <path
         inkscape:connector-curvature="0"
         id="path204"
         d="M 51805,34125 H 49828" />
      <path
         inkscape:connector-curvature="0"
         id="path206"
         d="m 51805,34500 v -375" />
      <path
         inkscape:connector-curvature="0"
         id="path208"
         d="m 51975,34500 h -170" />
      <path
         inkscape:connector-curvature="0"
         id="path210"
         d="m 49828,34125 -24,24" />
      <path
         inkscape:connector-curvature="0"
         id="path212"
         d="m 52430,34501 h -453" />
      <path
         inkscape:connector-curvature="0"
         id="path214"
         d="m 51977,34501 -2,-1" />
      <path
         inkscape:connector-curvature="0"
         id="path216"
         d="m 49804,34149 v -437" />
      <path
         inkscape:connector-curvature="0"
         id="path218"
         d="M 55180,33575 H 53505" />
      <path
         inkscape:connector-curvature="0"
         id="path220"
         d="m 55180,34250 v -675" />
      <path
         inkscape:connector-curvature="0"
         id="path222"
         d="m 53505,33575 -300,300" />
      <path
         inkscape:connector-curvature="0"
         id="path224"
         d="m 53205,33875 v 600" />
      <path
         inkscape:connector-curvature="0"
         id="path226"
         d="m 53205,34475 -27,26" />
      <path
         inkscape:connector-curvature="0"
         id="path228"
         d="m 53178,34501 h -748" />
      <path
         inkscape:connector-curvature="0"
         id="path230"
         d="m 45980,38000 h -800" />
      <path
         inkscape:connector-curvature="0"
         id="path232"
         d="m 45905,37925 75,75" />
      <path
         inkscape:connector-curvature="0"
         id="path234"
         d="M 47480,38000 H 45980" />
      <path
         inkscape:connector-curvature="0"
         id="path236"
         d="m 45905,34750 v 3175" />
      <path
         inkscape:connector-curvature="0"
         id="path238"
         d="m 45634,34750 h 271" />
      <path
         inkscape:connector-curvature="0"
         id="path240"
         d="m 45180,34748 h 452" />
      <path
         inkscape:connector-curvature="0"
         id="path242"
         d="m 45632,34748 2,2" />
      <path
         inkscape:connector-curvature="0"
         id="path244"
         d="m 47930,38450 -450,-450" />
      <path
         inkscape:connector-curvature="0"
         id="path246"
         d="m 47930,39000 v -550" />
      <path
         inkscape:connector-curvature="0"
         id="path248"
         d="M 45180,37000 V 35500" />
      <path
         inkscape:connector-curvature="0"
         id="path250"
         d="m 55180,36671 v 354" />
      <path
         inkscape:connector-curvature="0"
         id="path252"
         d="m 55180,37025 v 1975" />
      <path
         inkscape:connector-curvature="0"
         id="path254"
         d="m 54180,36671 v 2329" />
      <path
         inkscape:connector-curvature="0"
         id="path256"
         d="m 47430,34500 v 1000" />
      <path
         inkscape:connector-curvature="0"
         id="path258"
         d="m 47430,35500 -500,500" />
      <path
         inkscape:connector-curvature="0"
         id="path260"
         d="M 46930,39000 H 45180" />
      <path
         inkscape:connector-curvature="0"
         id="path262"
         d="m 52680,37000 v 1250" />
      <path
         inkscape:connector-curvature="0"
         id="path264"
         d="m 51928,38250 v 1248" />
      <path
         inkscape:connector-curvature="0"
         id="path266"
         d="m 51928,39498 2,2" />
    </g>
    <g
       transform="translate(0,34250.025)"
       id="g274"
       style="fill:#ffffff;fill-opacity:1;stroke:#ffffff;stroke-width:0;stroke-linecap:round;stroke-linejoin:round;stroke-opacity:1">
      <circle
         id="circle272"
         r="78.740196"
         cy="39000"
         cx="55180" />
    </g>
    <g
       transform="translate(0,34250.025)"
       id="g280"
       style="fill:#ffffff;fill-opacity:1;stroke:#ffffff;stroke-width:0;stroke-linecap:round;stroke-linejoin:round;stroke-opacity:1">
      <circle
         id="circle278"
         r="78.740196"
         cy="39000"
         cx="54180" />
    </g>
    <g
       transform="translate(0,34250.025)"
       id="g286"
       style="fill:#ffffff;fill-opacity:1;stroke:#ffffff;stroke-width:0;stroke-linecap:round;stroke-linejoin:round;stroke-opacity:1">
      <circle
         id="circle284"
         r="78.740196"
         cy="37000"
         cx="45180" />
    </g>
    <g
       transform="translate(0,34250.025)"
       id="g292"
       style="fill:#ffffff;fill-opacity:1;stroke:#ffffff;stroke-width:0;stroke-linecap:round;stroke-linejoin:round;stroke-opacity:1">
      <circle
         id="circle290"
         r="78.740196"
         cy="38000"
         cx="45180" />
    </g>
    <g
       transform="translate(0,34250.025)"
       id="g298"
       style="fill:#ffffff;fill-opacity:1;stroke:#ffffff;stroke-width:0;stroke-linecap:round;stroke-linejoin:round;stroke-opacity:1">
      <circle
         id="circle296"
         r="78.740196"
         cy="39000"
         cx="45180" />
    </g>
    <g
       transform="translate(0,34250.025)"
       id="g304"
       style="fill:#ffffff;fill-opacity:1;stroke:#ffffff;stroke-width:0;stroke-linecap:round;stroke-linejoin:round;stroke-opacity:1">
      <circle
         id="circle302"
         r="78.740196"
         cy="36000"
         cx="47930" />
    </g>
    <g
       transform="translate(0,34250.025)"
       id="g310"
       style="fill:#ffffff;fill-opacity:1;stroke:#ffffff;stroke-width:0;stroke-linecap:round;stroke-linejoin:round;stroke-opacity:1">
      <circle
         id="circle308"
         r="78.740196"
         cy="39000"
         cx="46930" />
    </g>
    <g
       transform="translate(0,34250.025)"
       id="g316"
       style="fill:#ffffff;fill-opacity:1;stroke:#ffffff;stroke-width:0;stroke-linecap:round;stroke-linejoin:round;stroke-opacity:1">
      <circle
         id="circle314"
         r="78.740196"
         cy="36000"
         cx="46930" />
    </g>
    <g
       transform="translate(0,34250.025)"
       id="g322"
       style="fill:#ffffff;fill-opacity:1;stroke:#ffffff;stroke-width:0;stroke-linecap:round;stroke-linejoin:round;stroke-opacity:1">
      <circle
         id="circle320"
         r="78.740196"
         cy="39000"
         cx="47930" />
    </g>
  </g>
  <g
     style="fill:#ffffff;fill-opacity:1;stroke:#ffffff;stroke-width:39.37009811;stroke-linecap:round;stroke-linejoin:round;stroke-opacity:1"
     id="g324"
     transform="translate(0,34250.025)" />
  <g
     style="fill:#000000;fill-opacity:1;stroke:#000000;stroke-width:39.37009811;stroke-linecap:round;stroke-linejoin:round;stroke-opacity:1"
     id="g326"
     transform="translate(0,34250.025)" />
</svg>
